<?xml version="1.0" encoding="UTF-8"?>
<svg version="1.1" xmlns="http://www.w3.org/2000/svg" width="4500" height="4500">
<path d="M0 0 C40.92 0 81.84 0 124 0 C124.03141756 40.8742414 124.03141756 40.8742414 124.02462769 53.5640564 C124.02416179 54.43621034 124.02369589 55.30836428 124.02321588 56.20694713 C124.0047784 85.44742412 123.82618409 114.68708162 123.64467499 143.92691832 C123.590254 152.70603852 123.53838643 161.48517345 123.48650425 170.26430895 C123.39296863 186.07831681 123.29734768 201.89231131 123.20043945 217.70629883 C123.10873507 232.67145918 123.01848082 247.63662728 122.92993164 262.60180664 C122.90806516 266.29615339 122.88619803 269.99050014 122.86432838 273.68484688 C122.85622561 275.05363709 122.85622561 275.05363709 122.84795914 276.45007963 C122.33886863 362.40314482 121.76915035 448.35555047 121 547 C121.54140625 547.23460938 122.0828125 547.46921875 122.640625 547.7109375 C125.65591544 549.3583644 128.11184012 551.42653344 130.75 553.625 C132.22726562 554.85089844 132.22726562 554.85089844 133.734375 556.1015625 C134.85585937 557.04128906 134.85585937 557.04128906 136 558 C136.00895228 556.3899054 136.00895228 556.3899054 136.01808542 554.74728364 C136.281725 507.33991747 136.54632481 459.93255679 136.81568909 412.52522278 C136.81978024 411.8051444 136.8238714 411.08506602 136.82808653 410.34316708 C136.91704848 394.68609041 137.00617862 379.0290147 137.09548148 363.37193997 C137.13928776 355.69140091 137.18305695 348.01086164 137.22680664 340.33032227 C137.23333729 339.18399024 137.23333729 339.18399024 137.23999988 338.0145 C137.38057232 313.33663997 137.51870607 288.65876704 137.65554682 263.98088606 C137.79642647 238.57699268 137.93982293 213.17311467 138.08629331 187.76925287 C138.10707895 184.16398705 138.12783643 180.55872106 138.14857674 176.95345497 C138.15469978 175.88932001 138.15469978 175.88932001 138.16094652 174.80368737 C138.22603477 163.47938433 138.28854502 152.15506852 138.35004 140.83074546 C138.41223393 129.38818559 138.4773251 117.94564564 138.545008 106.50311675 C138.58146075 100.32681053 138.61677683 94.15050419 138.64866829 87.97417259 C138.80108235 58.63605271 139.23510079 29.32965833 140 0 C168.38 0 196.76 0 226 0 C226.08947025 70.10562313 225.85877363 140.20496947 225.41936997 210.30916162 C225.35930986 219.90111432 225.30087701 229.49307603 225.24345398 239.08504486 C225.23929494 239.77968534 225.2351359 240.47432581 225.23085083 241.190016 C225.20971094 244.72205088 225.1885956 248.2540859 225.16749042 251.78612098 C225.02013983 276.43978555 224.87010395 301.09343303 224.71826172 325.74707031 C224.57156975 349.56607363 224.42590045 373.38508279 224.28173828 397.20410156 C224.27725611 397.94457116 224.27277395 398.68504075 224.26815595 399.44794882 C224.1700667 415.65334883 224.07219371 431.85875015 223.97440453 448.06415197 C223.94417382 453.07374293 223.91393561 458.08333384 223.8836965 463.09292474 C223.86662984 465.92031839 223.84956801 468.74771206 223.83250958 471.57510576 C223.72868366 488.78229188 223.62406721 505.98947291 223.51834849 523.19664751 C223.45911258 532.83828837 223.40021818 542.4799313 223.34149063 552.12157527 C223.29842292 559.18762695 223.25490095 566.25367563 223.21101162 573.31972225 C223.18439396 577.62370608 223.15823475 581.9276926 223.1322034 586.23168001 C223.12028467 588.18721695 223.10818136 590.14275278 223.09586447 592.09828725 C223.09014058 593.00837469 223.08441669 593.91846213 223.07851934 594.85612798 C223.07252085 595.74026189 223.06652237 596.62439579 223.0603421 597.53532164 C223.05148319 599.24347804 223.04754502 600.95166845 223.0489969 602.65984721 C223.04896498 606.80259651 222.96720849 610.91461343 222.72939587 615.05104208 C222.08874005 623.02224458 222.08874005 623.02224458 224.40669489 630.43549275 C226.34691486 632.22461355 228.16485592 633.40483463 230.5 634.625 C231.21542969 635.0684375 231.93085937 635.511875 232.66796875 635.96875 C234.41075969 637.03766178 236.20141047 638.02790518 238 639 C237.99793119 638.13949708 237.99793119 638.13949708 237.99582058 637.26161027 C237.87054625 581.85227068 238.21608512 526.44564468 238.54886835 471.03752224 C238.60575708 461.56376825 238.66192188 452.09001022 238.7176075 442.61624908 C238.7257258 441.23558871 238.73384435 439.85492834 238.74196314 438.47426797 C238.75420932 436.39161525 238.76645524 434.30896252 238.77869969 432.22630978 C238.89193092 412.96987078 239.00593815 393.71343649 239.12164211 374.45701218 C239.12596547 373.73745581 239.13028884 373.01789944 239.13474321 372.27653834 C239.16981498 366.44010453 239.20490651 360.60367084 239.23999988 354.76723716 C239.37668691 332.03152478 239.51078232 309.29579842 239.64282227 286.56005859 C239.79253606 260.78186824 239.94426473 235.00369081 240.09881264 209.22552896 C240.11540631 206.45669066 240.13199352 203.68785233 240.14857674 200.91901398 C240.15469978 199.89700989 240.15469978 199.89700989 240.16094652 198.85435926 C240.22145317 188.74869522 240.28046348 178.64302336 240.33868217 168.53734589 C240.85614204 78.88883447 240.85614204 78.88883447 241.26956177 47.34338379 C241.28530579 46.14189824 241.28530579 46.14189824 241.30136786 44.91614026 C241.50063689 29.94354037 241.75645399 14.97197462 242 0 C261.47 0 280.94 0 301 0 C301.0811318 71.40471486 300.88511488 142.80364032 300.45113165 214.20700481 C300.39370847 223.66251867 300.33762238 233.11803955 300.2823925 242.57356644 C300.27837859 243.26046185 300.27436467 243.94735727 300.27022912 244.6550677 C300.25391384 247.44725054 300.2376033 250.2394334 300.22130031 253.03161632 C300.07049541 278.85604274 299.91613841 304.68044675 299.76000012 330.50484142 C299.62272126 353.21365976 299.48862621 375.92249483 299.35717773 398.63134766 C299.20751702 424.48453873 299.05588565 450.33771705 298.90118736 476.19087851 C298.88459613 478.96439654 298.868009 481.73791459 298.85142326 484.51143265 C298.84530022 485.53490172 298.84530022 485.53490172 298.83905348 486.57904694 C298.77862691 496.68455141 298.7196109 506.79006329 298.66131783 516.89558029 C298.33928167 572.60105796 297.98933652 628.30172124 297 684 C292.69753552 684.01043842 288.39507061 684.02068498 284.09260559 684.03089905 C282.88427834 684.03383296 281.67595109 684.03676686 280.43100786 684.03978968 C270.85370474 684.06238384 261.27653748 684.07332854 251.69921875 684.05859375 C250.89035406 684.05735441 250.08148937 684.05611507 249.24811363 684.05483818 C227.06652273 684.0163692 204.88562314 683.86852218 182.70483398 683.68161011 C178.15277009 683.64337794 173.60070486 683.60908599 169.04858398 683.57839966 C106.58418265 683.14865015 48.10785334 678.07186693 -10 653 C-10.88961426 652.61650391 -11.77922852 652.23300781 -12.69580078 651.83789062 C-37.09910812 641.14332411 -59.48427732 626.59475979 -81 611 C-81.86657227 610.37287109 -82.73314453 609.74574219 -83.62597656 609.09960938 C-89.11855559 605.11221829 -94.57406905 601.07756698 -100 597 C-100.5995752 596.54963379 -101.19915039 596.09926758 -101.81689453 595.63525391 C-110.44260761 589.13164101 -118.82210514 582.3308437 -127.1796875 575.48828125 C-128.77261865 574.18590621 -130.3702952 572.88933968 -131.96875 571.59375 C-142.43617687 563.09666231 -152.65625458 554.34937351 -162.51806641 545.15576172 C-165.38360413 542.48461755 -168.27655492 539.86284618 -171.25 537.3125 C-174.86617434 534.19013098 -178.20551021 530.83432024 -181.53125 527.40625 C-183.5144919 525.47321676 -185.52196373 523.67228274 -187.62109375 521.87109375 C-192.83937335 517.34112603 -197.68873253 512.45714013 -202.5625 507.5625 C-203.46935547 506.65951172 -204.37621094 505.75652344 -205.31054688 504.82617188 C-209.88537004 500.24471373 -214.31100198 495.60465935 -218.52709961 490.69116211 C-220.41809575 488.51994874 -222.43405197 486.50427794 -224.5 484.5 C-227.87100065 481.16879193 -231.0451403 477.74888372 -234.12890625 474.15234375 C-236.33079829 471.61947838 -238.60195826 469.15667478 -240.875 466.6875 C-244.92521292 462.24749216 -248.75534122 457.68065719 -252.52734375 453.00390625 C-255.40883178 449.50333074 -258.38732379 446.09731467 -261.375 442.6875 C-267.04289444 436.19709874 -272.41355151 429.52178364 -277.67919922 422.703125 C-279.39315993 420.49303444 -281.1297523 418.30131252 -282.86621094 416.10888672 C-294.44973776 401.45611055 -305.73801699 386.65918183 -316.17578125 371.1640625 C-318.44104212 367.80338674 -320.77858476 364.50996913 -323.1875 361.25 C-328.033042 354.66087384 -332.51692905 347.83844094 -337 341 C-337.63180176 340.03779541 -337.63180176 340.03779541 -338.27636719 339.05615234 C-356.86323296 310.69307794 -374.15605246 281.62356367 -390.40283203 251.86376953 C-391.42472703 250.0314815 -392.4803051 248.21733012 -393.57763672 246.42919922 C-394.04572754 245.65721191 -394.51381836 244.88522461 -394.99609375 244.08984375 C-395.6156897 243.11132446 -395.6156897 243.11132446 -396.24780273 242.11303711 C-397.32581422 239.08473806 -396.80004397 237.08303012 -396 234 C-394.82348633 231.52832031 -394.82348633 231.52832031 -393.33203125 229.078125 C-392.49768555 227.68424561 -392.49768555 227.68424561 -391.64648438 226.26220703 C-391.04126953 225.26817871 -390.43605469 224.27415039 -389.8125 223.25 C-382.75922111 211.41781658 -376.18866941 199.37509185 -369.71923828 187.21630859 C-368.07616818 184.14249355 -366.41532658 181.07920327 -364.74609375 178.01953125 C-339.61086855 131.88217964 -317.0516259 84.59832855 -295.8125 36.5625 C-295.49612579 35.84784576 -295.17975159 35.13319153 -294.85379028 34.3968811 C-291.42879629 26.65264085 -288.05972295 18.89791721 -285 11 C-284.01 11.33 -283.02 11.66 -282 12 C-280.96362305 14.14428711 -280.96362305 14.14428711 -280.01171875 17.02734375 C-279.45798584 18.65470459 -279.45798584 18.65470459 -278.89306641 20.31494141 C-278.49522949 21.51038574 -278.09739258 22.70583008 -277.6875 23.9375 C-269.08091115 48.86458766 -258.77085207 73.12068893 -247.45458984 96.93505859 C-245.99537286 100.00974977 -244.55353434 103.0921687 -243.11328125 106.17578125 C-225.0252435 144.65683809 -203.40052912 181.52302305 -180 217 C-179.31679688 218.03898437 -178.63359375 219.07796875 -177.9296875 220.1484375 C-161.87064538 244.3995416 -144.89340404 268.06864725 -127 291 C-126.57686523 291.54398438 -126.15373047 292.08796875 -125.71777344 292.6484375 C-118.75519029 301.59517647 -111.64438554 310.41651198 -104.47216797 319.19580078 C-103.17728489 320.78273046 -101.88709522 322.37348737 -100.59765625 323.96484375 C-95.97043869 329.663099 -91.2322818 335.25483388 -86.43676758 340.8112793 C-83.4307151 344.30204045 -80.50192213 347.83867362 -77.625 351.4375 C-72.77695638 357.41793337 -67.49643508 362.96836196 -62.21875 368.56640625 C-59.33659079 371.62705534 -56.55401264 374.75781577 -53.80859375 377.94140625 C-49.84847057 382.44893306 -45.73742562 386.82230019 -41.65332031 391.21728516 C-40.00120936 392.99869599 -38.35568294 394.78600794 -36.7109375 396.57421875 C-29.55065687 404.33179434 -22.21334491 411.87651019 -14.68481445 419.27832031 C-14.00249756 419.95217773 -13.32018066 420.62603516 -12.6171875 421.3203125 C-12.01503418 421.91086426 -11.41288086 422.50141602 -10.79248047 423.10986328 C-8.71525585 425.30025732 -6.87444357 427.63519848 -5 430 C-4.99191584 429.21990893 -4.98383168 428.43981785 -4.97550255 427.63608766 C-4.49374758 381.15419714 -4.00956616 334.67233243 -3.52233625 288.19049896 C-3.46352264 282.57947345 -3.40472883 276.96844773 -3.34594727 271.35742188 C-3.33424712 270.24060963 -3.32254697 269.12379739 -3.31049227 267.97314236 C-3.12237085 250.01194169 -2.93584382 232.05072482 -2.74993116 214.08950117 C-2.5583967 195.58866907 -2.36509058 177.08785605 -2.17022032 158.58705878 C-2.05052872 147.2185804 -1.93213538 135.85009015 -1.8155347 124.48157963 C-1.73488159 116.63099964 -1.65247113 108.78043918 -1.56882221 100.92989054 C-1.51317302 95.70196754 -1.45874957 90.4740363 -1.4068706 85.24607444 C-1.11525076 56.82492656 -0.54653829 28.41999122 0 0 Z " fill="#3C0F5C" transform="translate(1115,1951)"/>
<path d="M0 0 C4.12673172 0.59021417 7.82380715 1.51923776 11.734375 2.95507812 C12.8485379 3.36126877 13.96270081 3.76745941 15.11062622 4.18595886 C16.31161957 4.62990494 17.51261292 5.07385101 18.75 5.53125 C20.0273335 5.99920876 21.3048338 6.46671243 22.58248901 6.93379211 C26.01128399 8.18879765 29.43763898 9.45034165 32.86354828 10.71319962 C36.45210025 12.03477129 40.0428489 13.35034897 43.63330078 14.66674805 C52.09191206 17.76957682 60.54648681 20.88331298 69 24 C70.71745422 24.63304047 70.71745422 24.63304047 72.46960449 25.27886963 C82.01161173 28.79662607 91.5509246 32.32161421 101.08763123 35.85371399 C114.2787982 40.73895818 127.48206045 45.59098704 140.6875 50.4375 C157.46885846 56.5968125 174.24434505 62.77104258 191 69 C190.42079116 73.35621754 189.34415465 76.9667185 187.5859375 80.98828125 C187.08022217 82.15198242 186.57450684 83.31568359 186.0534668 84.51464844 C185.49435644 85.7807662 184.93485562 87.0467116 184.375 88.3125 C183.78984935 89.64734213 183.2049757 90.98230572 182.62036133 92.31738281 C175.90348352 107.61559776 168.99791806 122.82858477 162 138 C161.68802673 138.67722107 161.37605347 139.35444214 161.05462646 140.05218506 C146.94069535 170.67315556 132.37189693 201.22595076 115.94140625 230.6796875 C113.64404494 234.8020107 111.41752064 238.95934077 109.21484375 243.1328125 C101.38412445 257.96368786 93.30388513 272.57607924 84.75634766 287.01074219 C82.30215348 291.18771655 79.90216573 295.39500449 77.49829102 299.60107422 C69.91133494 312.86069639 62.01941875 325.90930553 53.94238281 338.87548828 C52.09496086 341.84724623 50.26059509 344.82664138 48.4296875 347.80859375 C38.94279734 363.20041541 28.94198166 378.22955802 18.86401367 393.23791504 C15.62118428 398.06801789 12.40110595 402.91277456 9.18945312 407.76367188 C-1.61035132 424.05701846 -12.9188947 439.98030443 -24.40429688 455.79541016 C-25.99069657 457.98714657 -27.56713771 460.18569808 -29.140625 462.38671875 C-37.52908554 474.10387178 -46.22195314 485.57270117 -55 497 C-55.95077534 498.24199271 -56.90132596 499.48415751 -57.8515625 500.7265625 C-67.05124619 512.74131381 -76.43978588 524.59024881 -86.00390625 536.31640625 C-88.39996053 539.25603408 -90.7693991 542.21530009 -93.125 545.1875 C-96.61922362 549.57183112 -100.23310445 553.84693022 -103.8659668 558.11621094 C-106.7634946 561.52506718 -109.61763123 564.96374861 -112.4375 568.4375 C-119.98734831 577.70260902 -127.80649683 586.72158693 -135.84765625 595.5625 C-138.18665353 598.21138259 -140.4080066 600.93588593 -142.625 603.6875 C-145.68538355 607.47047411 -148.84295315 610.96241355 -152.3359375 614.34375 C-154.6926032 616.68935155 -156.83179003 619.20315883 -159.00390625 621.71875 C-162.75658711 626.00752813 -166.63762581 630.18080262 -170.5 634.37060547 C-172.03430347 636.03726259 -173.56432167 637.70777523 -175.09375 639.37890625 C-179.99242703 644.72165598 -184.92441165 649.9859643 -190.09812927 655.06568909 C-191.80685799 656.80356357 -193.38260523 658.58342046 -194.95336914 660.44506836 C-200.15844533 666.42866141 -205.82337069 671.96733435 -211.43359375 677.56640625 C-212.63768327 678.771171 -213.84162444 679.97608402 -215.04542542 681.18113708 C-217.55771625 683.69489458 -220.0717869 686.20685437 -222.5871582 688.7175293 C-225.79232496 691.91699942 -228.99298016 695.12093918 -232.19230556 698.32624912 C-234.6742143 700.81179145 -237.15852464 703.29492242 -239.64354134 705.7773571 C-240.82388515 706.95703938 -242.003502 708.13744954 -243.18234062 709.31863594 C-248.79672273 714.9417471 -254.39375419 720.53552769 -260.47206116 725.66477966 C-263.18738265 728.0376184 -265.442318 730.83277332 -267.75 733.59375 C-271.13942087 735.71213805 -274.24774488 734.71809638 -278 734 C-281.59113856 733.13116374 -285.13053721 732.1091358 -288.67578125 731.0703125 C-289.72374878 730.76867691 -290.77171631 730.46704132 -291.85144043 730.15626526 C-294.13459265 729.49841576 -296.41696402 728.83785152 -298.69863892 728.17489624 C-303.03839468 726.91411362 -307.38105606 725.66355309 -311.72393513 724.41357899 C-312.68776505 724.1361588 -312.68776505 724.1361588 -313.67106628 723.85313416 C-314.32006582 723.66634535 -314.96906536 723.47955654 -315.63773155 723.28710747 C-317.64641773 722.70867619 -319.6548777 722.1294653 -321.6632843 721.55006409 C-335.30983283 717.61440956 -348.97308394 713.73825985 -362.63867188 709.86932373 C-366.83879016 708.68019753 -371.03856475 707.4898607 -375.23828125 706.29931641 C-386.78851499 703.02524749 -398.33927957 699.75305474 -409.890625 696.48291016 C-418.69817565 693.98952075 -427.50550358 691.49534637 -436.3125 689 C-437.01765999 688.80021294 -437.72281998 688.60042587 -438.44934845 688.39458466 C-460.98901631 682.00809013 -483.51236828 675.56766532 -506 669 C-506 668.34 -506 667.68 -506 667 C-503.97269915 665.27664231 -501.93463581 663.66192725 -499.8125 662.0625 C-494.88197986 658.27269293 -490.03871699 654.41714985 -485.3125 650.375 C-481.45290976 647.07726714 -477.57134094 643.81937937 -473.625 640.625 C-467.91912076 635.97913896 -462.37448847 631.15792882 -456.828125 626.32421875 C-454.37256691 624.18584726 -451.90555446 622.06267 -449.421875 619.95703125 C-442.73948362 614.28972206 -436.22018851 608.49276142 -429.82568359 602.50170898 C-426.94563611 599.80354639 -424.05588137 597.13564425 -421.0625 594.5625 C-415.9984703 590.1851184 -411.14375062 585.58002163 -406.26538086 580.99829102 C-403.63741606 578.53181101 -401.00298766 576.07275953 -398.35961914 573.62280273 C-386.5007158 562.5941258 -375.03138721 551.18640055 -363.59423828 539.72460938 C-360.88942058 537.01402974 -358.18004478 534.3080571 -355.46938133 531.60332489 C-353.34672225 529.48429823 -351.22647337 527.36287279 -349.10692215 525.24073792 C-348.10865898 524.24181627 -347.10967653 523.24361281 -346.10990524 522.24620056 C-341.03008039 517.17576401 -336.05249714 512.07724129 -331.39407349 506.61425781 C-329.53602074 504.4627384 -327.53960005 502.47871647 -325.5 500.5 C-322.19736149 497.23615087 -319.09949352 493.8858581 -316.078125 490.36328125 C-313.28154388 487.18295873 -310.39007216 484.09525548 -307.5 481 C-302.90906634 476.07391465 -298.37749459 471.11787422 -294 466 C-293.12377679 464.97779697 -292.24746655 463.95566854 -291.37109375 462.93359375 C-289.85541991 461.16539169 -288.34019198 459.39681566 -286.82617188 457.62719727 C-283.04874069 453.21416308 -279.24728767 448.82260638 -275.4375 444.4375 C-267.12735864 434.8557 -258.90968843 425.2499812 -251.12670898 415.23242188 C-247.99237101 411.21458297 -244.75399326 407.30586615 -241.4375 403.4375 C-236.47976385 397.64426915 -231.8107726 391.66679359 -227.20751953 385.58984375 C-225.27761943 383.04889966 -223.32467329 380.5257871 -221.375 378 C-219.58154633 375.66803722 -217.79081613 373.33398856 -216 371 C-215.08976074 369.81494873 -215.08976074 369.81494873 -214.16113281 368.60595703 C-206.37110043 358.4560591 -198.66012787 348.27754801 -191.29101562 337.81787109 C-189.83746172 335.77113085 -188.36576798 333.73826549 -186.890625 331.70703125 C-186.33914795 330.94737061 -185.7876709 330.18770996 -185.21948242 329.4050293 C-184.17417374 327.96667099 -183.12762927 326.52920921 -182.0793457 325.09301758 C-171.71205238 310.80432107 -161.97399287 296.06362147 -152.1875 281.375 C-151.56993835 280.44835541 -150.95237671 279.52171082 -150.31610107 278.56698608 C-137.0355773 258.62856931 -124.1709446 238.49267402 -111.79736328 217.97705078 C-109.96280771 214.9383968 -108.12032484 211.9046435 -106.27734375 208.87109375 C-98.17265949 195.49311558 -90.37844774 181.97032017 -82.81542969 168.27929688 C-80.94142759 164.89419787 -79.05367293 161.51703297 -77.1640625 158.140625 C-67.4363575 140.7229105 -58.18066649 123.0857246 -49.1619873 105.29144287 C-47.95782086 102.91682258 -46.75099602 100.54356548 -45.54394531 98.17041016 C-29.16770548 65.94265633 -14.23120205 33.22311033 0 0 Z " fill="#3F0F59" transform="translate(620,1853)"/>
<path d="M0 0 C39.93 0 79.86 0 121 0 C130.98299015 11.09221128 130.98299015 11.09221128 135.25 16.6875 C139.74150842 22.50615488 144.46655296 28.07764963 149.3059082 33.60864258 C153.14826704 38.00357954 156.88891074 42.46554682 160.56640625 47 C163.65306702 50.80506497 166.76191227 54.59154235 169.875 58.375 C170.47586426 59.10525391 171.07672852 59.83550781 171.69580078 60.58789062 C175.81312823 65.58249902 179.97409881 70.53744934 184.16748047 75.46826172 C187.72910195 79.66188996 191.21119517 83.91608422 194.68359375 88.18359375 C197.27787266 91.33785192 199.91606265 94.4520298 202.5625 97.5625 C206.43241802 102.11284316 210.19959897 106.72832835 213.91015625 111.41015625 C216.83220315 115.03130969 219.84821486 118.56954569 222.86328125 122.11328125 C225.78004513 125.54571609 228.65693426 129.00592815 231.5 132.5 C234.78823483 136.53983137 238.12721426 140.53092065 241.5 144.5 C245.62101634 149.34959381 249.66991354 154.25160806 253.6875 159.1875 C256.26146392 162.31799666 258.87569086 165.41172461 261.5 168.5 C265.62101634 173.34959381 269.66991354 178.25160806 273.6875 183.1875 C276.26146392 186.31799666 278.87569086 189.41172461 281.5 192.5 C285.62101634 197.34959381 289.66991354 202.25160806 293.6875 207.1875 C296.26146392 210.31799666 298.87569086 213.41172461 301.5 216.5 C305.62101634 221.34959381 309.66991354 226.25160806 313.6875 231.1875 C316.26146392 234.31799666 318.87569086 237.41172461 321.5 240.5 C325.62101634 245.34959381 329.66991354 250.25160806 333.6875 255.1875 C336.26146392 258.31799666 338.87569086 261.41172461 341.5 264.5 C345.61206383 269.33905854 349.65341216 274.22933141 353.66015625 279.15625 C356.8512285 283.03454816 360.1040901 286.85935656 363.37109375 290.67382812 C365.39966777 293.05327468 367.26271453 295.39407179 369 298 C369.33 199.66 369.66 101.32 370 0 C407.29 0 444.58 0 483 0 C483 146.52 483 293.04 483 444 C443.07 444 403.14 444 362 444 C351.97524752 432.86138614 351.97524752 432.86138614 348.6875 428.75 C345.19567126 424.4354891 341.62419165 420.20294472 338 416 C333.68048535 410.98700394 329.44902234 405.91461883 325.27734375 400.77734375 C322.71795946 397.65603633 320.11406209 394.5754997 317.5 391.5 C313.37892208 386.65045949 309.33008517 381.74839036 305.3125 376.8125 C302.73853608 373.68200334 300.12430914 370.58827539 297.5 367.5 C294.12721426 363.53092065 290.78823483 359.53983137 287.5 355.5 C281.95340296 348.69012107 276.2612077 342.00506666 270.56787109 335.31787109 C265.31449204 329.14680863 260.1243168 322.94213388 255.08984375 316.58984375 C252.16779685 312.96869031 249.15178514 309.43045431 246.13671875 305.88671875 C243.21995487 302.45428391 240.34306574 298.99407185 237.5 295.5 C234.21176517 291.46016863 230.87278574 287.46907935 227.5 283.5 C223.37898366 278.65040619 219.33008646 273.74839194 215.3125 268.8125 C212.73853608 265.68200334 210.12430914 262.58827539 207.5 259.5 C203.37898366 254.65040619 199.33008646 249.74839194 195.3125 244.8125 C192.73853608 241.68200334 190.12430914 238.58827539 187.5 235.5 C183.37898366 230.65040619 179.33008646 225.74839194 175.3125 220.8125 C172.73853608 217.68200334 170.12430914 214.58827539 167.5 211.5 C163.37898366 206.65040619 159.33008646 201.74839194 155.3125 196.8125 C152.73853608 193.68200334 150.12430914 190.58827539 147.5 187.5 C143.38016701 182.65179875 139.33204036 177.75154155 135.31640625 172.81640625 C131.88568712 168.6451609 128.37925048 164.53979242 124.87109375 160.43359375 C121.17594936 156.0145027 117.59850689 151.49813361 114 147 C113.67 245.01 113.34 343.02 113 444 C75.71 444 38.42 444 0 444 C0 297.48 0 150.96 0 0 Z " fill="#5E2297" transform="translate(1583,1968)"/>
<path d="M0 0 C159.39 0 318.78 0 483 0 C483 35.97 483 71.94 483 109 C360.9 109 238.8 109 113 109 C103.04824213 202.06621171 103.04824213 202.06621171 120.6875 288.1875 C121.03562744 288.86184082 121.38375488 289.53618164 121.74243164 290.23095703 C124.8513283 296.06844008 128.59214553 301.0706055 133 306 C134.01320313 307.22589844 134.01320313 307.22589844 135.046875 308.4765625 C147.4181826 323.06025723 163.67148912 333.3367198 183 335 C187.11713982 335.14819463 191.23168094 335.15469619 195.35119629 335.15821838 C196.5830974 335.16315636 197.8149985 335.16809434 199.08422995 335.17318195 C202.48663607 335.18584519 205.88900172 335.19416013 209.29142189 335.20060861 C212.96685566 335.20864478 216.64226899 335.22233139 220.31768799 335.23532104 C226.67999122 335.25703833 233.04229656 335.27520008 239.40461731 335.29092598 C248.60339028 335.31366797 257.80214057 335.34180472 267.00089425 335.37124526 C281.92636738 335.41886819 296.85184982 335.46214668 311.77734375 335.50268555 C326.27344485 335.54206747 340.76953771 335.58350014 355.265625 335.62768555 C356.15962189 335.63040982 357.05361877 335.63313409 357.97470647 335.63594092 C362.45976287 335.64962084 366.94481915 335.66334103 371.42987537 335.67708123 C408.61990072 335.79096273 445.80994265 335.89698871 483 336 C483 371.64 483 407.28 483 444 C439.27909518 444.08830379 395.55827498 444.1621134 351.8373064 444.20426132 C346.66700945 444.2092637 341.49671269 444.21444104 336.32641602 444.21972656 C334.78254973 444.22130043 334.78254973 444.22130043 333.20749422 444.22290608 C316.57681243 444.24027637 299.94618636 444.27179531 283.31553755 444.30861118 C266.23078214 444.34611482 249.14605576 444.3682557 232.06126088 444.37635398 C221.53251298 444.38182227 211.00392263 444.39904682 200.47522327 444.43166587 C193.23972535 444.45293029 186.004308 444.45917328 178.76878116 444.45400551 C174.60414878 444.45146213 170.43979027 444.45515506 166.27520752 444.4768219 C143.14423762 444.59106011 121.43288268 443.55225969 100 434 C99.33661621 433.70609375 98.67323242 433.4121875 97.98974609 433.109375 C82.63496032 426.17234807 70.06533134 416.65326401 58 405 C56.64648438 403.74123047 56.64648438 403.74123047 55.265625 402.45703125 C18.37246083 367.21659554 1.65732772 316.98311786 0 267 C-0.17013277 258.1501136 -0.1269043 249.29785414 -0.11352539 240.44677734 C-0.11321849 237.77129836 -0.11330931 235.09582207 -0.11389065 232.4203434 C-0.11441794 226.02314101 -0.1098436 219.62595289 -0.10338932 213.22875414 C-0.09613553 205.81436666 -0.09539165 198.39998751 -0.09460449 190.9855957 C-0.08937294 171.44872824 -0.07541168 151.9118639 -0.0625 132.375 C-0.041875 88.69125 -0.02125 45.0075 0 0 Z " fill="#5E2297" transform="translate(2159,1968)"/>
<path d="M0 0 C19.21922113 -0.37452641 38.43769753 -0.65627277 57.65981674 -0.82899475 C66.58614152 -0.9113429 75.51019341 -1.02350114 84.43505859 -1.20703125 C92.21839753 -1.36701018 100.00009036 -1.46984422 107.78502774 -1.50541592 C111.90444197 -1.52619965 116.01914949 -1.57465238 120.13704681 -1.69168091 C147.20442323 -2.43184004 147.20442323 -2.43184004 153.63465881 3.5050354 C156.40451135 6.78061886 158.40648508 10.2398795 160.14863205 14.14896297 C161.25344327 16.55103423 162.72426646 18.56447904 164.33984375 20.6484375 C165.20799463 21.88904275 166.07394861 23.13118879 166.9375 24.375 C171.11975653 30.34716192 175.34870405 36.28228816 179.625 42.1875 C183.83619895 48.00352561 188.02992558 53.83098534 192.19628906 59.67919922 C195.56744353 64.40611469 198.97024987 69.10974835 202.375 73.8125 C208.13266162 81.77095035 213.81311436 89.78147196 219.46337891 97.81640625 C222.22096297 101.73503222 224.98601159 105.64839009 227.75 109.5625 C228.76565554 111.00128053 229.7812835 112.44008052 230.796875 113.87890625 C231.52390625 114.90886719 232.2509375 115.93882812 233 117 C236.65760983 113.51625543 239.596004 109.97456276 242.5 105.8125 C243.37695809 104.56464987 244.25459657 103.3172777 245.1328125 102.0703125 C245.5959082 101.41063477 246.05900391 100.75095703 246.53613281 100.07128906 C249.11666885 96.4199769 251.74968514 92.80667291 254.375 89.1875 C258.62300212 83.31910669 262.83240353 77.42574739 267 71.5 C272.71358269 63.37807304 278.51947615 55.32506235 284.34570312 47.28369141 C290.99931729 38.09864021 297.64666396 28.90878884 304.25 19.6875 C305.35558538 18.14411895 306.46297875 16.60181573 307.59507847 15.07777691 C309.1357239 12.8725977 309.1357239 12.8725977 310.70679379 9.84688282 C315.81510814 0.80877885 315.81510814 0.80877885 321.20039558 -1.18468666 C325.0673945 -1.59845702 328.82348756 -1.61226969 332.69946289 -1.47583008 C334.1687487 -1.47215726 335.63805831 -1.47423296 337.10733032 -1.48158264 C341.07366862 -1.48529512 345.03483825 -1.40919432 348.99998021 -1.31812119 C353.15168833 -1.23653701 357.30353135 -1.22919366 361.45591736 -1.21379089 C369.30847403 -1.17347467 377.15866193 -1.06692817 385.01017803 -0.93624753 C393.95304878 -0.79065194 402.89603614 -0.71939355 411.83979809 -0.65420687 C430.22787228 -0.51852843 448.61374535 -0.29005434 467 0 C465.73765777 3.24984913 464.48692834 5.98179807 462.41796875 8.79296875 C461.64839844 9.84774414 461.64839844 9.84774414 460.86328125 10.92382812 C460.31027344 11.67083984 459.75726562 12.41785156 459.1875 13.1875 C458.00376568 14.80588677 456.82017591 16.42437929 455.63671875 18.04296875 C455.03134277 18.86716309 454.4259668 19.69135742 453.80224609 20.54052734 C451.01410521 24.34542185 448.25775491 28.17305754 445.5 32 C444.4207577 33.49492508 443.34132988 34.98971626 442.26171875 36.484375 C441.72595215 37.22623047 441.19018555 37.96808594 440.63818359 38.73242188 C438.97426906 41.03561684 437.30949593 43.33818908 435.64453125 45.640625 C430.74654666 52.41540742 425.85255912 59.19258102 421 66 C417.24791618 71.26361575 413.47334082 76.51061165 409.6875 81.75 C409.14037354 82.50724365 408.59324707 83.2644873 408.02954102 84.04467773 C405.25629293 87.88165963 402.480812 91.71701171 399.703125 95.55078125 C394.42667206 102.83809915 389.17673876 110.14142863 384 117.5 C378.28208009 125.62784334 372.47175905 133.68666044 366.64111328 141.73388672 C363.92351827 145.486448 361.21205527 149.24343419 358.5 153 C357.41669638 154.50002146 356.33336304 156.00002146 355.25 157.5 C354.71375 158.2425 354.1775 158.985 353.625 159.75 C335.75 184.5 335.75 184.5 334.12280273 186.75268555 C333.04634135 188.24340724 331.97032756 189.73445226 330.89477539 191.22583008 C328.08500335 195.12064377 325.26622965 199.0084945 322.43359375 202.88671875 C321.84835937 203.69044922 321.263125 204.49417969 320.66015625 205.32226562 C319.54716543 206.85041969 318.43146602 208.37660637 317.3125 209.90039062 C314.23409842 214.13417193 311.51095859 218.40560814 309 223 C309.72703125 223.95777344 310.4540625 224.91554688 311.203125 225.90234375 C317.0818225 233.67672609 322.83303678 241.52165516 328.42895508 249.50195312 C333.66524976 256.96615179 339.00932831 264.35063815 344.35888672 271.73388672 C347.07648173 275.486448 349.78794473 279.24343419 352.5 283 C353.58330362 284.50002146 354.66663696 286.00002146 355.75 287.5 C362.25 296.5 368.75 305.5 375.25 314.5 C375.78633057 315.24258057 376.32266113 315.98516113 376.87524414 316.75024414 C377.95788254 318.2493445 379.0404022 319.74853062 380.12280273 321.24780273 C382.84079823 325.01228168 385.56088068 328.77521904 388.28515625 332.53515625 C394.0698625 340.52356012 399.8079679 348.54115819 405.48291016 356.60791016 C410.71107049 364.02946453 416.032523 371.38265054 421.35888672 378.73388672 C424.07648173 382.486448 426.78794473 386.24343419 429.5 390 C430.58330362 391.50002146 431.66663696 393.00002146 432.75 394.5 C434.91666667 397.5 437.08333333 400.5 439.25 403.5 C439.78689453 404.24338623 440.32378906 404.98677246 440.87695312 405.75268555 C441.95379984 407.24371654 443.03062299 408.73476455 444.10742188 410.22583008 C446.9148015 414.11320014 449.72266307 418.00022085 452.53125 421.88671875 C453.11197266 422.69044922 453.69269531 423.49417969 454.29101562 424.32226562 C455.39372692 425.84841806 456.49658099 427.37446735 457.59960938 428.90039062 C458.5939822 430.27672484 459.58689328 431.65411669 460.578125 433.03271484 C461.53877178 434.36185148 462.50776878 435.68498676 463.484375 437.00244141 C467 441.78581461 467 441.78581461 467 444 C447.79824175 444.4214727 428.59742819 444.73836645 409.39199543 444.93261909 C400.47321296 445.02523588 391.55731241 445.15135685 382.64038086 445.35791016 C374.863254 445.53797413 367.08821421 445.65359305 359.30906075 445.69359291 C355.19297096 445.7169631 351.08284806 445.77136921 346.96868324 445.90314102 C322.01872814 446.67170872 322.01872814 446.67170872 315.38296127 442.26015472 C311.18772726 438.15589492 308.49613384 433.52945093 306.07626915 428.22358322 C304.43365466 424.82992465 302.26659368 422.00820686 300 419 C299.19204381 417.87343083 298.38698245 416.74477508 297.5859375 415.61328125 C294.61783154 411.4577012 291.61980529 407.3238546 288.625 403.1875 C284.37757019 397.31868597 280.16760248 391.42575593 276 385.5 C270.28641731 377.37807304 264.48052385 369.32506235 258.65429688 361.28369141 C255.87081798 357.44120888 253.09125547 353.59589924 250.3125 349.75 C249.51078369 348.64047974 249.51078369 348.64047974 248.69287109 347.50854492 C243.76983647 340.69046675 238.87862763 333.84990154 234 327 C228.76064832 333.15742538 224.14527114 339.61895807 219.625 346.3125 C215.89332642 351.83755848 212.12107002 357.25805263 208 362.5 C203.97451797 367.62630155 200.27387502 372.91244404 196.625 378.3125 C192.07264237 385.04729377 187.36548114 391.61408463 182.44750977 398.08569336 C178.88736952 402.7824591 175.4463415 407.54982073 172.0625 412.375 C167.74709415 418.52843585 163.39684742 424.65441297 159 430.75 C158.18994507 431.87607666 158.18994507 431.87607666 157.36352539 433.02490234 C156.85168701 433.73340332 156.33984863 434.4419043 155.8125 435.171875 C155.36519531 435.7915918 154.91789062 436.41130859 154.45703125 437.04980469 C153.97621094 437.69336914 153.49539062 438.33693359 153 439 C152.43653744 439.85282153 151.87307487 440.70564306 151.29253769 441.58430767 C149 444 149 444 146.18082047 444.61523914 C144.53818537 444.6083257 144.53818537 444.6083257 142.86236572 444.60127258 C140.97355431 444.61158257 140.97355431 444.61158257 139.04658508 444.62210083 C137.65377211 444.6044062 136.26096517 444.58623217 134.86816406 444.56762695 C133.39961292 444.56621639 131.93105825 444.56700862 130.46250916 444.56983948 C126.47702715 444.57127476 122.49229672 444.54186767 118.50698948 444.50696969 C114.34167346 444.47572446 110.17634042 444.47277691 106.01092529 444.46684265 C98.12375631 444.45129876 90.23693363 444.41026309 82.34991717 444.3600952 C73.37060045 444.30421857 64.39126722 444.2767195 55.41181993 444.25161803 C36.94101691 444.19934757 18.47053629 444.11139485 0 444 C1.09569457 442.26209955 2.19352773 440.52554732 3.29223633 438.78955078 C3.9033577 437.82236115 4.51447906 436.85517151 5.14411926 435.8586731 C7.82243715 431.73317347 10.7326852 427.80473866 13.6875 423.875 C18.22360249 417.78152046 22.70091504 411.65720173 27.0625 405.4375 C32.75420191 397.32635204 38.54510083 389.29007022 44.35888672 381.26611328 C47.07648169 377.51355206 49.78797486 373.7565875 52.5 370 C55.78388543 365.45220514 59.06845048 360.90490621 62.35546875 356.359375 C67.25345334 349.58459258 72.14744088 342.80741898 77 336 C83.51739496 326.85706385 90.10677972 317.76607414 96.68652344 308.66796875 C102.14150729 301.12417934 107.59627197 293.58062703 113 286 C118.40798119 278.41340642 123.86727127 270.86409859 129.32666016 263.31445312 C130.97234992 261.03824376 132.61722209 258.76144646 134.26171875 256.484375 C134.79724365 255.74300293 135.33276855 255.00163086 135.88452148 254.23779297 C136.95641015 252.75299147 138.02754403 251.26764476 139.09790039 249.78173828 C141.93697391 245.84287461 144.79246857 241.91731216 147.671875 238.0078125 C148.27064453 237.19054688 148.86941406 236.37328125 149.48632812 235.53125 C150.63620946 233.96241965 151.79093686 232.39712629 152.95117188 230.8359375 C153.46744141 230.12953125 153.98371094 229.423125 154.515625 228.6953125 C154.97227539 228.07672363 155.42892578 227.45813477 155.89941406 226.82080078 C157.12073155 224.80026266 157.7625472 223.35497987 158 221 C157.15995911 219.09483012 157.15995911 219.09483012 155.7109375 217.3046875 C155.18798096 216.59795898 154.66502441 215.89123047 154.1262207 215.16308594 C153.54831787 214.40801758 152.97041504 213.65294922 152.375 212.875 C151.16763817 211.25285016 149.96061645 209.63044714 148.75390625 208.0078125 C147.81828857 206.76306152 147.81828857 206.76306152 146.86376953 205.49316406 C143.96405065 201.61421079 141.13968012 197.68195772 138.3125 193.75 C137.22539084 192.24469747 136.13815357 190.73948745 135.05078125 189.234375 C131.95302591 184.9393869 128.87509843 180.63048432 125.80126953 176.31835938 C120.7901413 169.29435105 115.72930529 162.30621493 110.67333984 155.31445312 C107.40615861 150.79550388 104.1419708 146.27439153 100.87792969 141.75317383 C98.15966599 137.98838678 95.43935801 134.22511039 92.71484375 130.46484375 C86.9301375 122.47643988 81.1920321 114.45884181 75.51708984 106.39208984 C70.28892951 98.97053547 64.967477 91.61734946 59.64111328 84.26611328 C56.92351827 80.513552 54.21205527 76.75656581 51.5 73 C50.41669638 71.49997854 49.33336304 69.99997854 48.25 68.5 C46.08333333 65.5 43.91666667 62.5 41.75 59.5 C40.94526245 58.3857666 40.94526245 58.3857666 40.12426758 57.24902344 C39.04332809 55.75231299 37.96243599 54.25556832 36.8815918 52.75878906 C34.1370246 48.95817363 31.39158034 45.15819702 28.64453125 41.359375 C11.87011078 18.15867699 11.87011078 18.15867699 3.875 6.6875 C3.12992188 5.61886719 2.38484375 4.55023437 1.6171875 3.44921875 C0 1 0 1 0 0 Z " fill="#5E2297" transform="translate(2702,1968)"/>
<path d="M0 0 C159.06 0 318.12 0 482 0 C482 35.97 482 71.94 482 109 C420.95 109 359.9 109 297 109 C297 219.55 297 330.1 297 444 C259.71 444 222.42 444 184 444 C184 333.45 184 222.9 184 109 C123.28 109 62.56 109 0 109 C0 73.03 0 37.06 0 0 Z " fill="#5E2297" transform="translate(3412,1968)"/>
<path d="M0 0 C19.20175825 -0.4214727 38.40257181 -0.73836645 57.60800457 -0.93261909 C66.52678704 -1.02523588 75.44268759 -1.15135685 84.35961914 -1.35791016 C92.136746 -1.53797413 99.91178579 -1.65359305 107.69093925 -1.69359291 C111.80702904 -1.7169631 115.91715194 -1.77136921 120.03131676 -1.90314102 C144.94541327 -2.67028095 144.94541327 -2.67028095 151.5928688 1.70761871 C155.76685094 5.77149092 158.38495526 10.3628182 160.80320168 15.61571121 C162.87808447 19.74933981 165.71767453 23.32296853 168.5 27 C169.58534592 28.4962992 170.66777405 29.99472314 171.74609375 31.49609375 C173.92329023 34.51092519 176.10322917 37.52374694 178.28515625 40.53515625 C184.0698625 48.52356012 189.8079679 56.54115819 195.48291016 64.60791016 C201.248155 72.79187457 207.12627541 80.89374408 213 89 C227.21545124 108.62818034 227.21545124 108.62818034 233 117 C237.49278591 112.87127041 240.70161204 108.25913544 244.0625 103.1875 C248.24991056 96.96392156 252.52004123 90.84476689 257.0625 84.875 C261.65227621 78.83633576 266.07767541 72.70359009 270.43212891 66.4934082 C274.06108916 61.3206979 277.73335412 56.18163183 281.4375 51.0625 C281.97681152 50.31701904 282.51612305 49.57153809 283.07177734 48.8034668 C285.26187337 45.77797668 287.45372586 42.75376105 289.64550781 39.72949219 C297.01401608 29.5589368 304.32103006 19.34895002 311.53710938 9.06958008 C312.01986328 8.38661865 312.50261719 7.70365723 313 7 C313.84204231 5.22805771 313.84204231 5.22805771 314.70109558 3.4203186 C316.6155676 0.78107249 317.61509147 0.08653998 320.83590889 -0.63760471 C324.64891864 -0.86511292 328.42947556 -0.86623123 332.24536133 -0.79467773 C333.7140595 -0.79270237 335.18276458 -0.79381321 336.65145874 -0.79777527 C340.63304785 -0.79978256 344.61315874 -0.75865057 348.59440446 -0.70975757 C352.75700765 -0.66597705 356.91964533 -0.66188483 361.08244324 -0.65357971 C368.96265607 -0.63182888 376.84218854 -0.57439446 384.72210187 -0.50413328 C393.69413946 -0.42587201 402.66620968 -0.38739894 411.63850367 -0.35226524 C430.09272141 -0.27911091 448.54630599 -0.15599875 467 0 C465.78822088 3.11741396 464.65535618 5.74400827 462.6015625 8.390625 C462.12855713 9.00856934 461.65555176 9.62651367 461.16821289 10.26318359 C460.65895264 10.91883301 460.14969238 11.57448242 459.625 12.25 C455.3236937 17.88323566 451.12718726 23.56859391 447.0625 29.375 C441.33123411 37.55033051 435.49905569 45.6489867 429.64111328 53.73388672 C426.92351831 57.48644794 424.21202514 61.2434125 421.5 65 C418.21611457 69.54779486 414.93154952 74.09509379 411.64453125 78.640625 C406.74654666 85.41540742 401.85255912 92.19258102 397 99 C390.48260504 108.14293615 383.89322028 117.23392586 377.31347656 126.33203125 C371.85849271 133.87582066 366.40372803 141.41937297 361 149 C354.48260504 158.14293615 347.89322028 167.23392586 341.31347656 176.33203125 C335.4572156 184.43075355 329.60803368 192.53384256 323.80786133 200.67285156 C319.84043135 206.23507191 315.83614841 211.77048765 311.83178711 217.30615234 C307.63259433 223.11448625 303.46521534 228.94465318 299.31640625 234.7890625 C297 238 297 238 295.48846245 239.39264679 C288.71594685 246.29488976 290.16422054 256.10320338 290.22705078 265.08398438 C290.21887495 267.03589091 290.20806964 268.98778793 290.19483948 270.93966675 C290.16644239 276.22434608 290.17474277 281.50840125 290.18970728 286.7931118 C290.19909515 292.32116552 290.17462933 297.84906773 290.15377808 303.3770752 C290.11944911 313.83874336 290.11549875 324.3001929 290.12250316 334.76190615 C290.13021183 348.90328985 290.09091137 363.04453819 290.05426407 377.18586349 C289.99778511 399.45732701 290.00404351 421.72832232 290 444 C252.71 444 215.42 444 177 444 C177.09023437 429.92730469 177.18046875 415.85460938 177.2734375 401.35546875 C177.299379 392.41854509 177.32175631 383.4818455 177.328125 374.54492188 C177.33888343 360.3721312 177.36382603 346.20042253 177.48339844 332.02807617 C177.57043709 321.70384383 177.60754537 311.38080406 177.58627188 301.05620652 C177.57672281 295.59568835 177.59110247 290.13773801 177.66541672 284.6776638 C179.22354563 256.53304988 179.22354563 256.53304988 167.43233299 232.20398998 C166.23464965 231.02855015 165.0162317 229.87377392 163.77571487 228.74363136 C160.66052432 225.68472589 158.3564451 222.05235702 155.9375 218.4375 C154.95878087 217.03692502 153.97737726 215.6382185 152.9921875 214.2421875 C152.50331055 213.54706055 152.01443359 212.85193359 151.51074219 212.13574219 C147.27167222 206.14295226 142.94796332 200.21025707 138.64111328 194.26611328 C135.92351827 190.513552 133.21205527 186.75656581 130.5 183 C129.41669638 181.49997854 128.33336304 179.99997854 127.25 178.5 C125.08333333 175.5 122.91666667 172.5 120.75 169.5 C120.2135083 168.75717773 119.6770166 168.01435547 119.12426758 167.24902344 C118.04332809 165.75231299 116.96243599 164.25556832 115.8815918 162.75878906 C113.1370246 158.95817363 110.39158034 155.15819702 107.64453125 151.359375 C102.34317769 144.02666167 97.05344563 136.68638156 91.80126953 129.31835938 C86.23725805 121.51938454 80.61413768 113.76291881 75 106 C68.57894591 97.12132185 62.16146398 88.24076658 55.80126953 79.31835938 C50.23725805 71.51938454 44.61413768 63.76291881 39 56 C32.58633203 47.13153497 26.17596125 38.26137967 19.82324219 29.34912109 C16.253478 24.34536146 12.66040354 19.35855563 9.0625 14.375 C8.50626953 13.60414062 7.95003906 12.83328125 7.37695312 12.0390625 C6.58901367 10.94851563 6.58901367 10.94851563 5.78515625 9.8359375 C5.31988525 9.19188965 4.85461426 8.5478418 4.37524414 7.88427734 C3.38699549 6.5302381 2.36638728 5.19959846 1.32592773 3.88525391 C0 2 0 2 0 0 Z " fill="#5E2297" transform="translate(3915,1968)"/>
<path d="M0 0 C28.38 0 56.76 0 86 0 C86.08467685 70.10532924 85.86954149 140.20511906 85.45113165 210.30916162 C85.39388484 219.90111701 85.33778814 229.4930786 85.2823925 239.08504486 C85.27427433 240.48996055 85.26615578 241.89487623 85.25803686 243.29979192 C85.24579035 245.41910588 85.23354421 247.53841985 85.22130031 249.65773383 C85.10863159 269.15506823 84.99480778 288.65239559 84.87835789 308.14970779 C84.87187284 309.23556599 84.87187284 309.23556599 84.86525679 310.34336071 C84.84336501 314.00824013 84.8214609 317.67311947 84.79955173 321.33799878 C84.79520411 322.06525191 84.79085649 322.79250504 84.78637712 323.54179615 C84.77758534 325.01241484 84.76879301 326.48303352 84.76000012 327.9536522 C84.62201193 351.03711472 84.48807526 374.12059778 84.35717773 397.20410156 C84.20863505 423.3981019 84.05710831 449.59208254 83.90118736 475.78604007 C83.88459064 478.57585314 83.86800387 481.36566627 83.85142326 484.15547943 C83.84734124 484.84196322 83.84325921 485.52844702 83.83905348 486.23573335 C83.77786824 496.53547395 83.71898743 506.83522604 83.66131783 517.13498688 C83.59601673 528.79720474 83.52749503 540.45939972 83.454992 552.12157527 C83.41819202 558.05448479 83.38279958 563.98739346 83.35133171 569.92033386 C83.3224557 575.35747794 83.28938665 580.79458047 83.2531023 586.23168001 C83.24076422 588.18720657 83.22990209 590.14274319 83.22074766 592.09828725 C83.16354912 604.09679699 82.78586247 616.02636088 82 628 C75.29049706 623.83275361 69.2391516 619.028723 63.1484375 614.02270508 C58.98576987 610.60426903 54.78605884 607.2625224 50.5 604 C43.46965428 598.63772389 36.63341292 593.04702336 29.78613281 587.45410156 C27.43195724 585.53755294 25.06162212 583.6417608 22.6875 581.75 C18.38962099 578.3203069 14.10984104 574.87158574 9.8984375 571.3359375 C7.82303013 569.66330461 5.79687877 568.15449486 3.6015625 566.6640625 C3.04259277 566.26106934 2.48362305 565.85807617 1.90771484 565.44287109 C0.3386755 564.31380979 -1.25969352 563.22583605 -2.859375 562.140625 C-5.3548327 558.47940604 -5.143787 557.80713019 -4.64800262 553.57682228 C-4.11272885 547.92363325 -3.87415372 542.34290496 -3.83289337 536.66495323 C-3.82652026 535.80659313 -3.82014714 534.94823302 -3.8135809 534.063862 C-3.79642252 531.25265529 -3.78448254 528.44145203 -3.77258301 525.63021851 C-3.7604548 523.57486761 -3.74791741 521.5195191 -3.73500872 519.46417296 C-3.70085702 513.84158683 -3.67243395 508.21898432 -3.64496446 502.59636211 C-3.61425698 496.52070913 -3.57816643 490.44508784 -3.54270935 484.36946106 C-3.48197026 473.84174418 -3.42450579 463.31401307 -3.36924744 452.78626633 C-3.28905779 437.51821947 -3.20291748 422.25021023 -3.11525899 406.98220463 C-3.07432557 399.85086266 -3.03369037 392.71951899 -2.99314117 385.58817482 C-2.98908158 384.87425188 -2.98502198 384.16032893 -2.98083937 383.42477196 C-2.884343 366.44204724 -2.79082989 349.45930627 -2.69775391 332.4765625 C-2.69368302 331.73395679 -2.68961214 330.99135107 -2.6854179 330.22624216 C-2.64832248 323.45912648 -2.6112528 316.69201067 -2.57420978 309.92489471 C-2.48390384 293.42811799 -2.3932388 276.93134326 -2.30224609 260.43457031 C-2.29817852 259.69694175 -2.29411094 258.95931319 -2.2899201 258.19933225 C-2.1967428 241.30475457 -2.10281989 224.4101814 -2.00685883 207.51561928 C-2.00280608 206.80203379 -1.99875334 206.0884483 -1.99457779 205.353239 C-1.95405574 198.22078856 -1.91342193 191.08833877 -1.87261468 183.95588996 C-1.78551481 168.72685387 -1.70052069 153.4978103 -1.6199988 138.26873791 C-1.56113117 127.14030427 -1.49955446 116.0118877 -1.43547881 104.88348268 C-1.40100551 98.8792335 -1.36770147 92.87498458 -1.33787346 86.87071037 C-1.19305318 57.9003062 -0.75351233 28.96212921 0 0 Z " fill="#653775" transform="translate(1255,1951)"/>
<path d="M0 0 C36.96 0 73.92 0 112 0 C112 146.52 112 293.04 112 444 C75.04 444 38.08 444 0 444 C0 297.48 0 150.96 0 0 Z " fill="#5E2297" transform="translate(3234,1968)"/>
<path d="M0 0 C19.47 0 38.94 0 59 0 C59.08114905 71.4153009 58.8850469 142.82481532 58.45113165 214.23876649 C58.39371095 223.69667264 58.33762455 233.1545858 58.2823925 242.61250496 C58.27837859 243.2995455 58.27436467 243.98658604 58.27022912 244.69444599 C58.2539139 247.48720007 58.23760336 250.27995418 58.22130031 253.07270832 C58.07049767 278.90188005 57.91613875 304.73102934 57.76000012 330.5601693 C57.6227058 353.27569142 57.48861379 375.99123035 57.35717773 398.70678711 C57.20753943 424.56619466 57.05591001 450.42558933 56.90118736 476.28496701 C56.88459603 479.05874795 56.8680089 481.83252891 56.85142326 484.60630989 C56.84530022 485.6298801 56.84530022 485.6298801 56.83905348 486.6741285 C56.7786122 496.78318239 56.71959912 506.89224377 56.66131783 517.00131035 C56.34158443 572.3382342 56.00299318 627.67052746 55 683 C47.30434123 678.63095848 47.30434123 678.63095848 44.046875 676.2578125 C43.35513184 675.75628662 42.66338867 675.25476074 41.95068359 674.73803711 C40.86134521 673.93958374 40.86134521 673.93958374 39.75 673.125 C38.97350098 672.55982666 38.19700195 671.99465332 37.39697266 671.41235352 C34.92800541 669.61271443 32.46346859 667.80715716 30 666 C29.19852539 665.41299316 28.39705078 664.82598633 27.57128906 664.22119141 C16.56126674 656.152386 16.56126674 656.152386 13.92551422 654.07273579 C11.61397017 652.43499974 9.5265904 651.22297355 7.02248383 649.95948315 C1.53772933 646.94355887 -3.83973512 643.66483886 -5.81383705 637.42939591 C-6.87309933 629.97185276 -6.20143422 622.44936579 -5.67808402 614.96763431 C-5.44695824 611.34779655 -5.31966247 607.72440435 -5.18773651 604.09981251 C-5.12999123 602.53891263 -5.07213187 600.97801697 -5.0141654 599.41712528 C-4.98470506 598.62017068 -4.95524473 597.82321607 -4.92489165 597.00211132 C-4.82792477 594.48850304 -4.72017951 591.97554472 -4.60999155 589.46248335 C-3.7222742 568.80631838 -3.72249523 548.14445451 -3.65334606 527.47243726 C-3.62824942 520.2046046 -3.58820293 512.93690008 -3.54483795 505.66915607 C-3.53749332 504.43369232 -3.53014869 503.19822857 -3.52258149 501.92532651 C-3.50754952 499.39934605 -3.49249882 496.8733657 -3.47742981 494.34738546 C-3.4394264 487.86563606 -3.40442825 481.38387056 -3.36924744 474.90210533 C-3.28770436 459.94835854 -3.20196035 444.99463788 -3.11525899 430.04092024 C-3.07440489 422.99370309 -3.03374669 415.94648482 -2.99314117 408.89926624 C-2.98908158 408.19474657 -2.98502198 407.4902269 -2.98083937 406.76435814 C-2.88508183 390.13824208 -2.79124834 373.51211525 -2.69775391 356.88598633 C-2.69368302 356.16218697 -2.68961214 355.43838761 -2.6854179 354.69265494 C-2.62767333 344.42533669 -2.57001313 334.15801797 -2.51236975 323.89069915 C-2.44240327 311.42884133 -2.37237985 298.96698383 -2.30224609 286.50512695 C-2.29817852 285.78224352 -2.29411094 285.05936008 -2.2899201 284.31457108 C-2.19649695 267.71341307 -2.10250745 251.11225851 -2.00685883 234.51111317 C-2.00077971 233.45593838 -2.00077971 233.45593838 -1.99457779 232.37944693 C-1.95403189 225.34383939 -1.91339262 218.3082324 -1.87261468 211.2726262 C-1.79001192 197.01735475 -1.70860064 182.76207893 -1.63075256 168.50678062 C-1.13812317 78.38730415 -1.13812317 78.38730415 -0.73266602 47.34561157 C-0.72220556 46.54465676 -0.71174511 45.74370196 -0.70096767 44.91847579 C-0.50221676 29.94507361 -0.24472104 14.97275265 0 0 Z " fill="#8D5F8E" transform="translate(1357,1951)"/>
<path d="M0 0 C89.76 0 179.52 0 272 0 C272 35.64 272 71.28 272 108 C182.24 108 92.48 108 0 108 C0 72.36 0 36.72 0 0 Z " fill="#5E2297" transform="translate(2370,2136)"/>
<path d="M0 0 C10.56 0 21.12 0 32 0 C38.82304294 6.8752601 38.82304294 6.8752601 40.02734375 10.33789062 C42.19447748 15.77782668 45.39041647 20.32790712 48.6875 25.140625 C49.88655719 26.95390954 51.08180812 28.76971616 52.2734375 30.58789062 C62.14261188 45.5838579 72.02190994 60.57177294 82.00244141 75.49389648 C90.81548824 88.68886646 99.52777061 101.95059815 108.25390625 115.203125 C108.86779205 116.13541428 109.48167786 117.06770355 110.11416626 118.02824402 C111.27125471 119.78568578 112.42814741 121.54325645 113.58480835 123.30097961 C114.36919785 124.49257942 114.36919785 124.49257942 115.16943359 125.70825195 C115.62144135 126.39514603 116.0734491 127.0820401 116.53915405 127.78974915 C118.35147424 130.53177835 120.17679668 133.26519502 122 136 C122.33 91.12 122.66 46.24 123 0 C133.23 0 143.46 0 154 0 C154 62.04 154 124.08 154 188 C143.44 188 132.88 188 122 188 C112.9375958 177.13895069 112.9375958 177.13895069 110.32421875 171.359375 C105.59135585 161.52406327 99.26968858 152.74046781 93.08407593 143.77944946 C89.95018817 139.23324964 86.85062774 134.66405326 83.7578125 130.08984375 C82.87224167 128.78130684 82.87224167 128.78130684 81.96878052 127.44633484 C78.55585143 122.38031965 75.24500936 117.26794693 72.04296875 112.06640625 C65.74333663 101.83356568 58.93668849 91.93929757 52.1875 82 C50.23646427 79.12338925 48.28628636 76.24620588 46.33772278 73.36791992 C45.13719446 71.5948975 43.93521649 69.8228554 42.73149109 68.05200195 C42.18354385 67.24335693 41.63559662 66.43471191 41.07104492 65.6015625 C40.59712814 64.90369629 40.12321136 64.20583008 39.63493347 63.48681641 C37.36254125 60.03039303 35.1923404 56.50774465 33 53 C32.67 97.55 32.34 142.1 32 188 C21.44 188 10.88 188 0 188 C0 125.96 0 63.92 0 0 Z " fill="#5E2297" transform="translate(3757,2460)"/>
<path d="M0 0 C10.56 0 21.12 0 32 0 C36.57877608 6.54110869 41.0886703 13.08548152 45.46484375 19.7578125 C46.05487686 20.65466766 46.64490997 21.55152283 47.25282288 22.47555542 C48.50387066 24.37734855 49.75430175 26.27954749 51.00415039 28.18212891 C54.27952956 33.16778625 57.55971575 38.15027867 60.83984375 43.1328125 C61.4779599 44.10228821 62.11607605 45.07176392 62.77352905 46.07061768 C67.1585103 52.72988094 71.56415219 59.37448609 76 66 C81.06456945 73.56466412 86.08519154 81.15731765 91.08984375 88.76171875 C91.7302359 89.73456818 92.37062805 90.7074176 93.03042603 91.70974731 C96.26014265 96.61688681 99.48787712 101.52531524 102.71289062 106.43554688 C103.92182729 108.27346888 105.13080984 110.11136071 106.33984375 111.94921875 C106.87689438 112.76831223 107.41394501 113.5874057 107.9672699 114.43132019 C112.53607386 121.37132128 117.26591536 128.16187774 122 135 C122.33 90.45 122.66 45.9 123 0 C133.23 0 143.46 0 154 0 C154 62.04 154 124.08 154 188 C143.77 188 133.54 188 123 188 C118.21798185 181.42472504 113.64564032 175.05203081 109.4140625 168.16796875 C102.67622312 157.36158661 95.53787899 146.83995897 88.375 136.3125 C74.39436507 115.76241167 74.39436507 115.76241167 69.0390625 107.05859375 C62.68878662 96.73850483 55.81085663 86.76915083 49 76.75 C47.01760615 73.83256018 45.03611163 70.91453166 43.05761719 67.9944458 C41.83792875 66.19433057 40.61602649 64.39571277 39.39160156 62.59881592 C38.56934082 61.3853952 38.56934082 61.3853952 37.73046875 60.14746094 C37.24989014 59.44071228 36.76931152 58.73396362 36.27416992 58.00579834 C35 56 35 56 33 52 C32.67 96.88 32.34 141.76 32 188 C21.44 188 10.88 188 0 188 C0 125.96 0 63.92 0 0 Z " fill="#5E2297" transform="translate(2218,2460)"/>
<path d="M0 0 C1.64246704 0.00845947 1.64246704 0.00845947 3.31811523 0.01708984 C29.10305267 0.40072079 51.5428617 9.72956721 70.21875 27.6171875 C77.33775182 35.05313118 82.85820631 43.85371197 86.42041016 53.53076172 C86.68326813 54.24175018 86.9461261 54.95273865 87.21694946 55.68527222 C87.41348114 56.22225739 87.61001282 56.75924255 87.8125 57.3125 C82.56601286 57.61113971 77.32454534 57.82772211 72.0715332 57.97167969 C70.28908084 58.03171339 68.50721188 58.11338165 66.72680664 58.21777344 C52.30530215 59.04162864 52.30530215 59.04162864 48.13705444 56.15032959 C44.96467211 52.96751953 42.96440033 49.23975085 40.8125 45.3125 C32.72218229 36.2067033 19.50317453 31.09308479 7.57568359 30.13232422 C-10.79097053 29.10643903 -27.23259652 32.35214074 -41.5 44.6875 C-54.60470293 57.1297219 -61.44663694 73.17911246 -62.390625 91.1875 C-62.7302983 109.11229827 -59.22045355 125.76534643 -48.1875 140.3125 C-47.41986328 141.34503906 -47.41986328 141.34503906 -46.63671875 142.3984375 C-37.31113283 154.01647055 -22.55692894 160.06439868 -8.0703125 162.03125 C8.86991151 163.68395478 24.46538714 160.29938152 38.4375 150.46484375 C50.19962594 140.78890569 55.59818785 126.77690468 58.8125 112.3125 C35.7125 112.3125 12.6125 112.3125 -11.1875 112.3125 C-11.1875 104.0625 -11.1875 95.8125 -11.1875 87.3125 C23.1325 87.3125 57.4525 87.3125 92.8125 87.3125 C92.8125 121.29449764 88.54159175 143.43031733 64.8125 167.3125 C47.05284448 184.27010656 24.21086921 191.73991462 0 191.625 C-1.24104492 191.61936035 -2.48208984 191.6137207 -3.76074219 191.60791016 C-12.3151696 191.49425623 -20.01423422 191.00307818 -28.1875 188.3125 C-29.12843506 188.01448486 -29.12843506 188.01448486 -30.08837891 187.71044922 C-53.32049708 180.23157828 -73.09969164 164.93660713 -84.59204102 143.23803711 C-92.27502331 127.98647288 -95.58536562 113.07922059 -95.5 96 C-95.49436035 94.81301514 -95.4887207 93.62603027 -95.48291016 92.40307617 C-95.36226445 83.67656916 -94.73517429 75.70824483 -92.1875 67.3125 C-91.89746094 66.3539209 -91.89746094 66.3539209 -91.6015625 65.37597656 C-86.9344327 50.4454826 -79.07332263 38.54293899 -68.1875 27.3125 C-67.64996094 26.70148437 -67.11242188 26.09046875 -66.55859375 25.4609375 C-50.29738296 7.61028506 -23.37124271 -0.12702749 0 0 Z " fill="#5E2297" transform="translate(4145.1875,2457.6875)"/>
<path d="M0 0 C18.25766173 15.33461212 30.25955316 34.95540937 34.21289062 58.58349609 C34.32375 59.22544922 34.43460938 59.86740234 34.54882812 60.52880859 C38.04268109 85.36349317 33.30737203 112.84008638 18.23242188 133.26708984 C16.26866803 135.74665145 14.26049828 138.17292138 12.21289062 140.58349609 C11.436875 141.55931641 10.66085938 142.53513672 9.86132812 143.54052734 C-4.72911837 160.99858868 -28.93245405 170.2214901 -51.05273438 172.30615234 C-76.30550755 174.18161981 -100.96438513 168.30882986 -121.22460938 152.64599609 C-122.76628997 151.31561182 -124.28741248 149.96103397 -125.78710938 148.58349609 C-126.60308594 147.85904297 -127.4190625 147.13458984 -128.25976562 146.38818359 C-145.37190899 130.36042644 -155.93630281 107.05157716 -156.78710938 83.58349609 C-156.83867188 82.50326172 -156.89023438 81.42302734 -156.94335938 80.31005859 C-157.61830863 53.93079192 -149.38650229 29.45939531 -131.78710938 9.58349609 C-98.29940676 -25.5462484 -38.23970376 -30.30966683 0 0 Z M-107.93945312 27.79052734 C-122.29076704 44.40058932 -124.94955835 64.56069955 -123.99414062 85.75732422 C-122.69766027 103.45550413 -114.6238 118.63577296 -101.78710938 130.58349609 C-87.97023547 142.29125217 -71.73896596 145.65427077 -54.10205078 144.77880859 C-38.34072777 143.44901969 -25.89590054 136.65303358 -14.78710938 125.58349609 C-14.2225 125.04208984 -13.65789062 124.50068359 -13.07617188 123.94287109 C-0.06240909 110.30940531 2.83489477 90.80313118 2.68579102 72.81396484 C2.15304705 53.82575705 -4.07223612 36.66513296 -18.09960938 23.39599609 C-44.3359737 1.19599551 -83.99301632 3.23565113 -107.93945312 27.79052734 Z " fill="#5E2297" transform="translate(2044.787109375,2477.41650390625)"/>
<path d="M0 0 C10.56 0 21.12 0 32 0 C32.01458252 3.77912842 32.02916504 7.55825684 32.04418945 11.4519043 C32.0946333 23.9689106 32.16109782 36.48578945 32.23571491 49.00267315 C32.2805463 56.5881123 32.31998957 64.17350583 32.34643555 71.7590332 C32.36951876 78.37599753 32.40303039 84.99281592 32.44870156 91.60966426 C32.47249576 95.10834 32.49131433 98.60687246 32.49761391 102.10562706 C32.50486891 106.02589988 32.53542258 109.94581607 32.56762695 113.8659668 C32.56619186 115.006772 32.56475677 116.14757721 32.5632782 117.32295227 C32.71027575 130.06073259 34.74283103 141.23813583 43.62890625 150.7421875 C52.69288347 159.19629154 64.80406267 161.50908977 76.85546875 161.24609375 C88.13635636 160.36324168 98.4422416 157.13775451 106.375 148.75 C114.96269167 137.63937067 115.29226624 122.78741635 115.31884766 109.32495117 C115.32889328 108.13311722 115.3389389 106.94128326 115.34928894 105.71333313 C115.37986931 101.82321602 115.39708563 97.93316691 115.4140625 94.04296875 C115.43173336 91.32626417 115.45227599 88.60958329 115.4727478 85.89289856 C115.51926272 79.50432358 115.55613749 73.11573201 115.58942068 66.72707587 C115.62783671 59.44511843 115.67719479 52.16324746 115.72740483 44.88136327 C115.83031809 29.92096727 115.91826481 14.96052952 116 0 C126.23 0 136.46 0 147 0 C147.09064275 16.78668824 147.16417978 33.57316436 147.20724869 50.36003017 C147.22778671 58.15620689 147.25573739 65.95221963 147.30175781 73.74829102 C147.3418964 80.55125474 147.36749628 87.35409959 147.37635398 94.15717846 C147.38152356 97.75224328 147.39348545 101.34696833 147.42292023 104.94192314 C147.61225274 129.03174899 146.88952965 150.48315519 129.23046875 168.79296875 C128.49441406 169.52128906 127.75835938 170.24960938 127 171 C126.39800781 171.63550781 125.79601563 172.27101563 125.17578125 172.92578125 C113.74548934 184.10812756 94.59259943 189.42619234 79 190 C78.08089844 190.03996094 77.16179688 190.07992187 76.21484375 190.12109375 C56.55702151 190.56138753 36.72405491 185.71389328 21.625 172.625 C6.64128665 158.22317843 0.53283873 140.54265143 -0.09012032 120.03296852 C-0.12190831 116.84161164 -0.1238571 113.6517033 -0.11352539 110.46020508 C-0.11367142 109.25890961 -0.11381744 108.05761414 -0.1139679 106.81991577 C-0.11339529 103.56238893 -0.10841961 100.30490643 -0.10139394 97.04738832 C-0.09509413 93.62946917 -0.0945514 90.21154893 -0.09336853 86.79362488 C-0.0902746 80.33765214 -0.08208762 73.88169658 -0.07201904 67.42573136 C-0.06079735 60.06890763 -0.05533227 52.71208303 -0.05032361 45.35525286 C-0.03990315 30.23682414 -0.02158209 15.11841768 0 0 Z " fill="#5E2297" transform="translate(2792,2460)"/>
<path d="M0 0 C1.09046631 0.00563965 2.18093262 0.0112793 3.30444336 0.01708984 C28.73443989 0.39700696 51.32485897 9.51835695 69.75 27.3125 C76.57220115 34.67304187 86.75 46.94338249 86.75 57.3125 C81.4484258 57.56045102 76.15024594 57.74146602 70.84423828 57.86181641 C69.04155695 57.9119898 67.23928035 57.98015232 65.43798828 58.06689453 C50.41260753 58.77211671 50.41260753 58.77211671 46.33642578 55.19360352 C44.78125 52.54296875 44.78125 52.54296875 43.75976562 49.89916992 C41.02832816 42.90217284 33.36187564 37.48801489 26.75 34.3125 C10.71582399 28.12460417 -8.02543498 26.21625785 -24.18798828 33.14306641 C-39.88726624 40.17210285 -50.04217884 49.31365239 -57.125 65.25 C-65.00103945 86.20735065 -64.82602907 109.16790568 -55.56518555 129.60620117 C-48.19415106 144.90643711 -37.0496262 154.13519798 -21.28125 160.3125 C-5.52295129 165.51111401 12.0204004 164.63064791 27.0625 157.625 C34.98343733 153.32747017 40.63181984 148.89126878 44.296875 140.5859375 C46.07430064 137.73239474 47.36032178 135.73235403 50.67172241 134.73190308 C56.49234288 133.9117713 62.34007339 134.31375653 68.1875 134.625 C69.98617902 134.68022189 71.78502026 134.73040425 73.58398438 134.77539062 C77.97667906 134.89618902 82.36155488 135.08567008 86.75 135.3125 C84.81860265 146.0605051 77.87099096 155.29274319 70.75 163.3125 C70.15832031 163.99828125 69.56664062 164.6840625 68.95703125 165.390625 C54.95380344 180.55830032 32.15268582 190.30507847 11.69238281 191.48950195 C-19.33184571 192.0764089 -44.52602933 187.44920339 -67.953125 165.65234375 C-87.28725872 146.93037258 -95.63629132 122.23182431 -96.5 95.8125 C-95.71740144 71.8741911 -89.1785225 50.54433227 -73.25 32.3125 C-72.70988281 31.62929687 -72.16976563 30.94609375 -71.61328125 30.2421875 C-54.69162704 9.34619804 -26.04131464 -0.14269214 0 0 Z " fill="#5E2297" transform="translate(1667.25,2457.6875)"/>
<path d="M0 0 C12.73815381 10.88533144 17.51772346 22.35120806 19.015625 38.828125 C7.465625 38.828125 -4.084375 38.828125 -15.984375 38.828125 C-17.304375 35.198125 -18.624375 31.568125 -19.984375 27.828125 C-23.92539491 22.18530103 -27.61755938 19.32713152 -33.984375 16.828125 C-35.015625 16.415625 -36.046875 16.003125 -37.109375 15.578125 C-46.26645753 13.80578644 -56.45581772 13.63036024 -64.984375 17.828125 C-70.92593549 21.85010441 -75.07149804 26.15592007 -76.48046875 33.3671875 C-77.54424533 41.32906173 -76.21550396 46.22952991 -72.046875 52.953125 C-62.87651394 62.90337014 -45.42623661 65.70081852 -32.87890625 69.29296875 C-4.08754866 77.59158926 -4.08754866 77.59158926 6.015625 86.828125 C6.70011719 87.42238281 7.38460937 88.01664063 8.08984375 88.62890625 C16.74582445 96.61288845 20.58720151 106.14710377 21.234375 117.75 C21.73251143 134.39151618 17.86601045 148.37657689 6.20703125 160.765625 C-5.82873435 172.09340438 -21.6011668 177.91177607 -37.984375 178.828125 C-39.24894531 178.90740234 -39.24894531 178.90740234 -40.5390625 178.98828125 C-61.50744213 179.65624902 -81.38895646 174.02220745 -97.14453125 159.890625 C-106.88701436 149.61284062 -109.984375 137.62357125 -109.984375 123.828125 C-99.094375 123.828125 -88.204375 123.828125 -76.984375 123.828125 C-75.994375 126.798125 -75.004375 129.768125 -73.984375 132.828125 C-70.07048088 141.67692911 -64.96856176 146.10190321 -56.04296875 149.5859375 C-45.7290632 152.64350449 -33.12580928 151.62978404 -23.62890625 146.57421875 C-17.88776432 142.62112478 -14.18178349 137.42035048 -11.984375 130.828125 C-11.21257225 122.28768468 -11.77946284 115.90854673 -17.31640625 109.21875 C-27.15179335 99.5576609 -43.70063628 96.71376928 -56.59277344 93.29907227 C-74.81566228 88.43976839 -94.03090259 82.55161296 -104.390625 65.515625 C-111.36359069 52.54266558 -111.65861275 37.95800355 -107.94921875 23.85546875 C-103.74751257 10.67197769 -95.52202418 1.50795602 -83.59765625 -5.4140625 C-58.09606857 -18.50889723 -23.21782188 -16.89673948 0 0 Z " fill="#5E2297" transform="translate(2626.984375,2471.171875)"/>
<path d="M0 0 C43.23 0 86.46 0 131 0 C131 8.58 131 17.16 131 26 C114.83 26 98.66 26 82 26 C82 79.46 82 132.92 82 188 C71.44 188 60.88 188 50 188 C50 134.54 50 81.08 50 26 C33.5 26 17 26 0 26 C0 17.42 0 8.84 0 0 Z " fill="#5E2297" transform="translate(3306,2460)"/>
<path d="M0 0 C10.56 0 21.12 0 32 0 C32 53.46 32 106.92 32 162 C52.79 162 73.58 162 95 162 C95 170.58 95 179.16 95 188 C63.65 188 32.3 188 0 188 C0 125.96 0 63.92 0 0 Z " fill="#5E2297" transform="translate(3087,2460)"/>
<path d="M0 0 C10.23 0 20.46 0 31 0 C31 62.04 31 124.08 31 188 C20.77 188 10.54 188 0 188 C0 125.96 0 63.92 0 0 Z " fill="#5E2297" transform="translate(3577,2460)"/>
</svg>
